<svg xmlns="http://www.w3.org/2000/svg" version="1.1" xmlns:xlink="http://www.w3.org/1999/xlink" xmlns:svgjs="http://svgjs.dev/svgjs" width="1000" height="1000" viewBox="0 0 1000 1000"><rect width="1000" height="1000" fill="#fbeaab"></rect><g transform="matrix(0.7,0,0,0.7,149.57575757575756,450.0348368873853)"><svg viewBox="0 0 396 57" data-background-color="#fbeaab" preserveAspectRatio="xMidYMid meet" height="143" width="1000" xmlns="http://www.w3.org/2000/svg" xmlns:xlink="http://www.w3.org/1999/xlink"><g id="tight-bounds" transform="matrix(1,0,0,1,0.2400000000000091,-0.04830871709256712)"><svg viewBox="0 0 395.52 57.096617434185134" height="57.096617434185134" width="395.52"><g><svg viewBox="0 0 475.9669541220218 68.70980757185332" height="57.096617434185134" width="395.52"><g transform="matrix(1,0,0,1,80.4469541220218,9.496073260654114)"><svg viewBox="0 0 395.52 49.71766105054509" height="49.71766105054509" width="395.52"><g id="textblocktransform"><svg viewBox="0 0 395.52 49.71766105054509" height="49.71766105054509" width="395.52" id="textblock"><g><svg viewBox="0 0 395.52 49.71766105054509" height="49.71766105054509" width="395.52"><g transform="matrix(1,0,0,1,0,0)"><svg width="395.52" viewBox="2.45 -37.65 302.68 38.05" height="49.71766105054509" data-palette-color="#454545"><path d="M25.75-33.4L23.9-29.7Q22.05-30.65 19.85-31.35 17.65-32.05 15.55-32.05L15.55-32.05Q12.65-32.05 10.93-30.7 9.2-29.35 9.2-27.1L9.2-27.1Q9.2-25.4 10.3-24.23 11.4-23.05 13.2-22.2 15-21.35 16.95-20.6L16.95-20.6Q18.65-19.95 20.3-19.15 21.95-18.35 23.28-17.15 24.6-15.95 25.38-14.2 26.15-12.45 26.15-9.85L26.15-9.85Q26.15-7 24.73-4.65 23.3-2.3 20.65-0.95 18 0.4 14.35 0.4L14.35 0.4Q11.95 0.4 9.78-0.15 7.6-0.7 5.75-1.58 3.9-2.45 2.45-3.4L2.45-3.4 4.6-7.2Q5.8-6.35 7.35-5.58 8.9-4.8 10.6-4.33 12.3-3.85 13.9-3.85L13.9-3.85Q15.6-3.85 17.28-4.48 18.95-5.1 20.05-6.4 21.15-7.7 21.15-9.85L21.15-9.85Q21.15-11.7 20.18-12.93 19.2-14.15 17.6-15.03 16-15.9 14.2-16.6L14.2-16.6Q12.5-17.25 10.75-18.03 9-18.8 7.5-19.93 6-21.05 5.1-22.7 4.2-24.35 4.2-26.7L4.2-26.7Q4.2-29.55 5.58-31.68 6.95-33.8 9.35-35.02 11.75-36.25 14.85-36.35L14.85-36.35Q18.35-36.35 21.03-35.5 23.7-34.65 25.75-33.4L25.75-33.4ZM58.8-7L60.85-2.7Q59.95-2.1 58.4-1.35 56.85-0.6 54.77-0.1 52.7 0.4 50.25 0.4L50.25 0.4Q46.05 0.35 42.67-1.1 39.3-2.55 36.95-5.05 34.6-7.55 33.32-10.83 32.05-14.1 32.05-17.8L32.05-17.8Q32.05-21.85 33.37-25.28 34.7-28.7 37.1-31.23 39.5-33.75 42.77-35.15 46.05-36.55 49.95-36.55L49.95-36.55Q53.2-36.55 55.85-35.68 58.5-34.8 60.4-33.6L60.4-33.6 58.45-29.1Q56.95-30.1 54.82-31 52.7-31.9 50.1-31.9L50.1-31.9Q47.45-31.9 45.1-30.85 42.75-29.8 40.95-27.9 39.15-26 38.12-23.48 37.1-20.95 37.1-18.05L37.1-18.05Q37.1-15.1 38.02-12.58 38.95-10.05 40.67-8.2 42.4-6.35 44.85-5.3 47.3-4.25 50.35-4.25L50.35-4.25Q53.1-4.25 55.25-5.1 57.4-5.95 58.8-7L58.8-7ZM92.8-36.15L97.59-36.15 97.59 0 92.8 0 92.8-15.85 73.84-15.85 73.84 0 69 0 69-36.15 73.84-36.15 73.84-20.45 92.8-20.45 92.8-36.15ZM105.74-18.05L105.74-18.05Q105.74-21.8 107.17-25.13 108.59-28.45 111.14-31.03 113.69-33.6 117.02-35.08 120.34-36.55 124.19-36.55L124.19-36.55Q127.99-36.55 131.32-35.08 134.64-33.6 137.22-31.03 139.79-28.45 141.24-25.13 142.69-21.8 142.69-18.05L142.69-18.05Q142.69-14.2 141.24-10.85 139.79-7.5 137.22-4.98 134.64-2.45 131.32-1.03 127.99 0.4 124.19 0.4L124.19 0.4Q120.34 0.4 117.02-1 113.69-2.4 111.14-4.9 108.59-7.4 107.17-10.75 105.74-14.1 105.74-18.05ZM110.74-18L110.74-18Q110.74-15.15 111.79-12.68 112.84-10.2 114.69-8.3 116.54-6.4 118.99-5.33 121.44-4.25 124.29-4.25L124.29-4.25Q127.09-4.25 129.54-5.33 131.99-6.4 133.79-8.3 135.59-10.2 136.64-12.68 137.69-15.15 137.69-18.05L137.69-18.05Q137.69-20.9 136.64-23.43 135.59-25.95 133.74-27.85 131.89-29.75 129.44-30.83 126.99-31.9 124.19-31.9L124.19-31.9Q121.34-31.9 118.89-30.8 116.44-29.7 114.59-27.8 112.74-25.9 111.74-23.38 110.74-20.85 110.74-18ZM150.84 0L150.84-36.15 155.69-36.15 155.69-4.65 174.04-4.65 174.04 0 150.84 0ZM183.09 0L178.34 0 194.14-37.65 194.44-37.65 210.19 0 204.64 0 192.84-30.05 196.29-32.3 183.09 0ZM186.19-9.5L187.59-13.7 201.04-13.7 202.64-9.5 186.19-9.5ZM216.99-36.15L226.59-36.15Q229.34-36.15 231.66-35.43 233.99-34.7 235.71-33.27 237.44-31.85 238.41-29.78 239.39-27.7 239.39-24.95L239.39-24.95Q239.39-22.8 238.76-20.75 238.14-18.7 236.69-17.03 235.24-15.35 232.91-14.33 230.59-13.3 227.19-13.3L227.19-13.3 221.84-13.3 221.84 0 216.99 0 216.99-36.15ZM221.84-17.95L227.09-17.95Q229.24-17.95 230.66-18.6 232.09-19.25 232.89-20.28 233.69-21.3 234.04-22.5 234.39-23.7 234.39-24.75L234.39-24.75Q234.39-25.85 234.01-27.03 233.64-28.2 232.81-29.2 231.99-30.2 230.66-30.85 229.34-31.5 227.44-31.5L227.44-31.5 221.84-31.5 221.84-17.95ZM227.29-15.05L233.04-15.2 242.49 0 236.89 0 227.29-15.05ZM249.93 0L249.93-36.15 254.78-36.15 254.78-4.65 273.13-4.65 273.13 0 249.93 0ZM286.78 0L286.78-12.05 273.38-36.15 279.33-36.15 290.08-16.2 288.58-16.1 299.23-36.15 305.13-36.15 291.63-12.05 291.63 0 286.78 0Z" opacity="1" transform="matrix(1,0,0,1,0,0)" fill="#454545" class="undefined-text-0" data-fill-palette-color="primary" id="text-0"></path></svg></g></svg></g></svg></g></svg></g><g><svg viewBox="0 0 68.70980757185332 68.70980757185332" height="68.70980757185332" width="68.70980757185332"><g data-palette-color="#454545"><rect width="18.780680736306575" height="68.70980757185332" fill="#454545" stroke="transparent" data-fill-palette-color="accent" x="0" fill-opacity="0.5"></rect><rect width="18.780680736306575" height="68.70980757185332" fill="#454545" stroke="transparent" data-fill-palette-color="accent" x="22.903269190617774" fill-opacity="0.75"></rect><rect width="18.780680736306575" height="68.70980757185332" fill="#454545" stroke="transparent" data-fill-palette-color="accent" x="45.80653838123555" fill-opacity="1"></rect></g></svg></g></svg></g><defs></defs></svg><rect width="395.52" height="57.096617434185134" fill="none" stroke="none" visibility="hidden"></rect></g></svg></g></svg>